<svg width="32" height="32" viewBox="0 0 32 32" fill="none" xmlns="http://www.w3.org/2000/svg">
<g clip-path="url(#clip0_0_453)">
<rect width="32" height="32" rx="16" fill="white"/>
<path d="M16 13.45C15.3237 13.45 14.6751 13.7187 14.1969 14.1969C13.7187 14.6751 13.45 15.3237 13.45 16C13.45 16.6763 13.7187 17.3249 14.1969 17.8031C14.6751 18.2813 15.3237 18.55 16 18.55C16.6763 18.55 17.3249 18.2813 17.8031 17.8031C18.2813 17.3249 18.55 16.6763 18.55 16C18.55 15.3237 18.2813 14.6751 17.8031 14.1969C17.3249 13.7187 16.6763 13.45 16 13.45ZM16 11.75C17.1272 11.75 18.2082 12.1978 19.0052 12.9948C19.8022 13.7918 20.25 14.8728 20.25 16C20.25 17.1272 19.8022 18.2082 19.0052 19.0052C18.2082 19.8022 17.1272 20.25 16 20.25C14.8728 20.25 13.7918 19.8022 12.9948 19.0052C12.1978 18.2082 11.75 17.1272 11.75 16C11.75 14.8728 12.1978 13.7918 12.9948 12.9948C13.7918 12.1978 14.8728 11.75 16 11.75ZM21.525 11.5375C21.525 11.8193 21.4131 12.0895 21.2138 12.2888C21.0145 12.4881 20.7443 12.6 20.4625 12.6C20.1807 12.6 19.9105 12.4881 19.7112 12.2888C19.5119 12.0895 19.4 11.8193 19.4 11.5375C19.4 11.2557 19.5119 10.9855 19.7112 10.7862C19.9105 10.5869 20.1807 10.475 20.4625 10.475C20.7443 10.475 21.0145 10.5869 21.2138 10.7862C21.4131 10.9855 21.525 11.2557 21.525 11.5375ZM16 9.2C13.8971 9.2 13.5537 9.20595 12.5754 9.2493C11.909 9.28075 11.4618 9.37 11.047 9.5315C10.6781 9.6743 10.4121 9.84515 10.1291 10.1291C9.86301 10.3861 9.65845 10.6999 9.53065 11.047C9.36915 11.4636 9.2799 11.9098 9.2493 12.5754C9.2051 13.5138 9.2 13.8419 9.2 16C9.2 18.1029 9.20595 18.4463 9.2493 19.4247C9.28075 20.0902 9.37 20.5382 9.53065 20.9521C9.67515 21.3219 9.84515 21.5879 10.1274 21.8701C10.4138 22.1557 10.6799 22.3265 11.0454 22.4676C11.4653 22.63 11.9124 22.7201 12.5754 22.7507C13.5138 22.7949 13.8419 22.8 16 22.8C18.1029 22.8 18.4463 22.7941 19.4247 22.7507C20.0893 22.7192 20.5373 22.63 20.9521 22.4694C21.3202 22.3257 21.5879 22.1549 21.8701 21.8727C22.1566 21.5862 22.3274 21.3202 22.4685 20.9547C22.63 20.5356 22.7201 20.0876 22.7507 19.4247C22.7949 18.4862 22.8 18.1582 22.8 16C22.8 13.8971 22.7941 13.5537 22.7507 12.5754C22.7192 11.9107 22.63 11.4618 22.4685 11.047C22.3404 10.7003 22.1362 10.3866 21.8709 10.1291C21.614 9.86287 21.3002 9.65829 20.953 9.53065C20.5365 9.36915 20.0893 9.2799 19.4247 9.2493C18.4862 9.2051 18.1582 9.2 16 9.2ZM16 7.5C18.3095 7.5 18.5976 7.5085 19.5037 7.551C20.4089 7.5935 21.0252 7.73545 21.5675 7.94625C22.1285 8.16215 22.6011 8.45455 23.0737 8.9263C23.5059 9.35121 23.8404 9.8652 24.0538 10.4325C24.2637 10.9739 24.4065 11.591 24.449 12.4963C24.489 13.4024 24.5 13.6906 24.5 16C24.5 18.3095 24.4915 18.5976 24.449 19.5037C24.4065 20.4089 24.2637 21.0252 24.0538 21.5675C23.841 22.1351 23.5065 22.6492 23.0737 23.0737C22.6487 23.5058 22.1347 23.8402 21.5675 24.0538C21.026 24.2637 20.4089 24.4065 19.5037 24.449C18.5976 24.489 18.3095 24.5 16 24.5C13.6906 24.5 13.4024 24.4915 12.4963 24.449C11.591 24.4065 10.9748 24.2637 10.4325 24.0538C9.86498 23.8408 9.3509 23.5063 8.9263 23.0737C8.494 22.6489 8.15954 22.1348 7.94625 21.5675C7.73545 21.026 7.5935 20.4089 7.551 19.5037C7.51105 18.5976 7.5 18.3095 7.5 16C7.5 13.6906 7.5085 13.4024 7.551 12.4963C7.5935 11.5902 7.73545 10.9748 7.94625 10.4325C8.15895 9.86485 8.49348 9.35072 8.9263 8.9263C9.35102 8.49385 9.86506 8.15937 10.4325 7.94625C10.9748 7.73545 11.5902 7.5935 12.4963 7.551C13.4024 7.51105 13.6906 7.5 16 7.5Z" fill="black"/>
</g>
<defs>
<clipPath id="clip0_0_453">
<rect width="32" height="32" rx="16" fill="white"/>
</clipPath>
</defs>
</svg>
