<svg width="32" height="32" viewBox="0 0 32 32" fill="none" xmlns="http://www.w3.org/2000/svg">
<g clip-path="url(#clip0_0_457)">
<rect width="32" height="32" rx="16" fill="white"/>
<path d="M24.4605 10.6965C23.8238 10.9781 23.1486 11.1631 22.4572 11.2453C23.1859 10.8094 23.7313 10.1236 23.9918 9.31541C23.3079 9.7224 22.5581 10.0076 21.7767 10.1619C21.2518 9.60028 20.556 9.22781 19.7976 9.1024C19.0392 8.97698 18.2606 9.10565 17.5828 9.46841C16.905 9.83116 16.3661 10.4077 16.0498 11.1083C15.7335 11.8089 15.6575 12.5945 15.8337 13.3427C14.4469 13.2732 13.0902 12.9128 11.8517 12.285C10.6131 11.6571 9.52053 10.7758 8.64473 9.69821C8.33473 10.2307 8.17182 10.836 8.17269 11.4521C8.17269 12.6614 8.78818 13.7297 9.72391 14.3552C9.17015 14.3378 8.62858 14.1882 8.14434 13.919V13.9624C8.14451 14.7678 8.4232 15.5483 8.93316 16.1717C9.44313 16.795 10.153 17.2228 10.9424 17.3826C10.4283 17.5219 9.8893 17.5424 9.36613 17.4426C9.58869 18.1359 10.0225 18.7421 10.6068 19.1766C11.191 19.611 11.8966 19.8518 12.6245 19.8653C11.901 20.4336 11.0726 20.8536 10.1867 21.1015C9.30073 21.3493 8.37463 21.4201 7.4613 21.3098C9.05564 22.3351 10.9116 22.8795 12.8072 22.8777C19.223 22.8777 22.7316 17.5627 22.7316 12.9533C22.7316 12.8031 22.7274 12.6514 22.7208 12.5029C23.4037 12.0093 23.9931 11.3979 24.4613 10.6973L24.4605 10.6965Z" fill="black"/>
</g>
<defs>
<clipPath id="clip0_0_457">
<rect width="32" height="32" rx="16" fill="white"/>
</clipPath>
</defs>
</svg>
