<svg width="32" height="32" viewBox="0 0 32 32" fill="none" xmlns="http://www.w3.org/2000/svg">
<g clip-path="url(#clip0_0_461)">
<rect width="32" height="32" rx="16" fill="white"/>
<path d="M12.2747 10.4918C12.2745 10.9092 12.1084 11.3095 11.8131 11.6045C11.5178 11.8995 11.1173 12.0652 10.6999 12.0649C10.2825 12.0647 9.88219 11.8987 9.58716 11.6034C9.29213 11.3081 9.1265 10.9076 9.12671 10.4902C9.12692 10.0727 9.29295 9.67247 9.58827 9.37744C9.8836 9.08241 10.284 8.91678 10.7015 8.91699C11.1189 8.9172 11.5192 9.08323 11.8142 9.37856C12.1092 9.67388 12.2749 10.0743 12.2747 10.4918ZM12.3219 13.2305H9.17393V23.0836H12.3219V13.2305ZM17.2956 13.2305H14.1634V23.0836H17.2642V17.9131C17.2642 15.0327 21.0181 14.7651 21.0181 17.9131V23.0836H24.1267V16.8428C24.1267 11.987 18.5706 12.168 17.2642 14.5526L17.2956 13.2305Z" fill="black"/>
</g>
<defs>
<clipPath id="clip0_0_461">
<rect width="32" height="32" rx="16" fill="white"/>
</clipPath>
</defs>
</svg>
