<svg width="43" height="43" viewBox="0 0 43 43" fill="none" xmlns="http://www.w3.org/2000/svg">
<path d="M11.3276 14.1602C10.8326 15.6424 10.56 17.2627 10.56 18.9602C10.56 26.0294 15.2879 31.7602 21.12 31.7602C26.9521 31.7602 31.68 26.0294 31.68 18.9602C31.68 17.2627 31.4074 15.6424 30.9125 14.1602" stroke="#FFD9C4" stroke-width="2.64" stroke-linecap="round" stroke-linejoin="round"/>
<path d="M25.5201 37.0398C25.5201 37.0398 24.3198 31.7598 21.1201 31.7598C17.9204 31.7598 16.7201 37.0398 16.7201 37.0398" stroke="#FFD9C4" stroke-width="2.64" stroke-linecap="round" stroke-linejoin="round"/>
<path d="M32.5955 9.28457C33.1092 12.2179 30.8006 14.1604 30.8006 14.1604C30.8006 14.1604 27.9785 13.1695 27.4647 10.2361C26.951 7.30279 29.2596 5.36035 29.2596 5.36035C29.2596 5.36035 32.0817 6.35125 32.5955 9.28457Z" stroke="#FFD9C4" stroke-width="2.64" stroke-linecap="round" stroke-linejoin="round"/>
<path d="M37.1258 21.4451C34.8706 23.6747 31.817 22.7845 31.817 22.7845C31.817 22.7845 31.0185 19.6645 33.2737 17.4348C35.5288 15.2052 38.5826 16.0954 38.5826 16.0954C38.5826 16.0954 39.3811 19.2153 37.1258 21.4451Z" stroke="#FFD9C4" stroke-width="2.64" stroke-linecap="round" stroke-linejoin="round"/>
<path d="M32.091 32.0933C29.451 31.0802 29.04 28.2396 29.04 28.2396C29.04 28.2396 31.2691 26.412 33.9091 27.4251C36.5491 28.4381 36.96 31.2788 36.96 31.2788C36.96 31.2788 34.731 33.1063 32.091 32.0933Z" stroke="#FFD9C4" stroke-width="2.64" stroke-linecap="round" stroke-linejoin="round"/>
<path d="M10.149 32.0933C12.789 31.0802 13.2 28.2396 13.2 28.2396C13.2 28.2396 10.9709 26.412 8.33091 27.4251C5.69091 28.4381 5.27997 31.2787 5.27997 31.2787C5.27997 31.2787 7.50903 33.1063 10.149 32.0933Z" stroke="#FFD9C4" stroke-width="2.64" stroke-linecap="round" stroke-linejoin="round"/>
<path d="M5.11402 21.4451C7.3692 23.6747 10.4229 22.7845 10.4229 22.7845C10.4229 22.7845 11.2213 19.6645 8.96614 17.4348C6.71096 15.2052 3.65731 16.0954 3.65731 16.0954C3.65731 16.0954 2.85883 19.2153 5.11402 21.4451Z" stroke="#FFD9C4" stroke-width="2.64" stroke-linecap="round" stroke-linejoin="round"/>
<path d="M9.64458 9.28457C9.13087 12.2179 11.4394 14.1604 11.4394 14.1604C11.4394 14.1604 14.2617 13.1695 14.7754 10.2361C15.2891 7.30279 12.9806 5.36035 12.9806 5.36035C12.9806 5.36035 10.1583 6.35125 9.64458 9.28457Z" stroke="#FFD9C4" stroke-width="2.64" stroke-linecap="round" stroke-linejoin="round"/>
</svg>
