<svg width="32" height="33" viewBox="0 0 32 33" fill="none" xmlns="http://www.w3.org/2000/svg">
<path d="M8.58152 11.1665C8.20651 12.2895 8 13.5169 8 14.8029C8 20.1584 11.5817 24.4998 16 24.4998C20.4183 24.4998 24 20.1584 24 14.8029C24 13.5169 23.7935 12.2895 23.4185 11.1665" stroke="#FFD9C4" stroke-width="2" stroke-linecap="round" stroke-linejoin="round"/>
<path d="M19.3334 28.5C19.3334 28.5 18.424 24.5 16 24.5C13.576 24.5 12.6667 28.5 12.6667 28.5" stroke="#FFD9C4" stroke-width="2" stroke-linecap="round" stroke-linejoin="round"/>
<path d="M24.6935 7.47289C25.0827 9.69512 23.3338 11.1667 23.3338 11.1667C23.3338 11.1667 21.1958 10.416 20.8066 8.19377C20.4174 5.97155 22.1663 4.5 22.1663 4.5C22.1663 4.5 24.3043 5.25068 24.6935 7.47289Z" stroke="#FFD9C4" stroke-width="2" stroke-linecap="round" stroke-linejoin="round"/>
<path d="M28.1256 16.6857C26.4171 18.3748 24.1037 17.7004 24.1037 17.7004C24.1037 17.7004 23.4988 15.3368 25.2073 13.6477C26.9157 11.9585 29.2292 12.633 29.2292 12.633C29.2292 12.633 29.8341 14.9965 28.1256 16.6857Z" stroke="#FFD9C4" stroke-width="2" stroke-linecap="round" stroke-linejoin="round"/>
<path d="M24.3113 24.7527C22.3113 23.9852 22 21.8332 22 21.8332C22 21.8332 23.6887 20.4487 25.6887 21.2161C27.6887 21.9836 28 24.1356 28 24.1356C28 24.1356 26.3113 25.5201 24.3113 24.7527Z" stroke="#FFD9C4" stroke-width="2" stroke-linecap="round" stroke-linejoin="round"/>
<path d="M7.68868 24.7527C9.68868 23.9852 10 21.8332 10 21.8332C10 21.8332 8.31132 20.4487 6.31132 21.2161C4.31132 21.9836 4 24.1356 4 24.1356C4 24.1356 5.68868 25.5201 7.68868 24.7527Z" stroke="#FFD9C4" stroke-width="2" stroke-linecap="round" stroke-linejoin="round"/>
<path d="M3.87422 16.6857C5.58269 18.3748 7.89606 17.7004 7.89606 17.7004C7.89606 17.7004 8.50097 15.3368 6.79249 13.6477C5.08402 11.9585 2.77065 12.633 2.77065 12.633C2.77065 12.633 2.16574 14.9965 3.87422 16.6857Z" stroke="#FFD9C4" stroke-width="2" stroke-linecap="round" stroke-linejoin="round"/>
<path d="M7.3065 7.47289C6.91732 9.69512 8.66624 11.1667 8.66624 11.1667C8.66624 11.1667 10.8043 10.416 11.1935 8.19377C11.5827 5.97155 9.83376 4.5 9.83376 4.5C9.83376 4.5 7.69567 5.25068 7.3065 7.47289Z" stroke="#FFD9C4" stroke-width="2" stroke-linecap="round" stroke-linejoin="round"/>
</svg>
