<svg width="44" height="43" viewBox="0 0 44 43" fill="none" xmlns="http://www.w3.org/2000/svg">
<path d="M12.1676 14.1602C11.6726 15.6424 11.4 17.2627 11.4 18.9602C11.4 26.0294 16.1278 31.7602 21.96 31.7602C27.7921 31.7602 32.52 26.0294 32.52 18.9602C32.52 17.2627 32.2473 15.6424 31.7524 14.1602" stroke="#FFD9C4" stroke-width="2.64" stroke-linecap="round" stroke-linejoin="round"/>
<path d="M26.36 37.0398C26.36 37.0398 25.1597 31.7598 21.96 31.7598C18.7603 31.7598 17.56 37.0398 17.56 37.0398" stroke="#FFD9C4" stroke-width="2.64" stroke-linecap="round" stroke-linejoin="round"/>
<path d="M33.4354 9.28457C33.9492 12.2179 31.6406 14.1604 31.6406 14.1604C31.6406 14.1604 28.8184 13.1695 28.3047 10.2361C27.7909 7.30279 30.0995 5.36035 30.0995 5.36035C30.0995 5.36035 32.9217 6.35125 33.4354 9.28457Z" stroke="#FFD9C4" stroke-width="2.64" stroke-linecap="round" stroke-linejoin="round"/>
<path d="M37.9658 21.4451C35.7105 23.6747 32.6569 22.7845 32.6569 22.7845C32.6569 22.7845 31.8584 19.6645 34.1136 17.4348C36.3687 15.2052 39.4225 16.0954 39.4225 16.0954C39.4225 16.0954 40.221 19.2153 37.9658 21.4451Z" stroke="#FFD9C4" stroke-width="2.64" stroke-linecap="round" stroke-linejoin="round"/>
<path d="M32.9309 32.0933C30.2909 31.0802 29.88 28.2396 29.88 28.2396C29.88 28.2396 32.109 26.412 34.749 27.4251C37.389 28.4381 37.8 31.2788 37.8 31.2788C37.8 31.2788 35.5709 33.1063 32.9309 32.0933Z" stroke="#FFD9C4" stroke-width="2.64" stroke-linecap="round" stroke-linejoin="round"/>
<path d="M10.989 32.0933C13.629 31.0802 14.04 28.2396 14.04 28.2396C14.04 28.2396 11.8109 26.412 9.17091 27.4251C6.53091 28.4381 6.11996 31.2787 6.11996 31.2787C6.11996 31.2787 8.34902 33.1063 10.989 32.0933Z" stroke="#FFD9C4" stroke-width="2.64" stroke-linecap="round" stroke-linejoin="round"/>
<path d="M5.95396 21.4451C8.20914 23.6747 11.2628 22.7845 11.2628 22.7845C11.2628 22.7845 12.0613 19.6645 9.80607 17.4348C7.5509 15.2052 4.49724 16.0954 4.49724 16.0954C4.49724 16.0954 3.69877 19.2153 5.95396 21.4451Z" stroke="#FFD9C4" stroke-width="2.64" stroke-linecap="round" stroke-linejoin="round"/>
<path d="M10.4845 9.28457C9.97084 12.2179 12.2794 14.1604 12.2794 14.1604C12.2794 14.1604 15.1017 13.1695 15.6154 10.2361C16.1291 7.30279 13.8205 5.36035 13.8205 5.36035C13.8205 5.36035 10.9983 6.35125 10.4845 9.28457Z" stroke="#FFD9C4" stroke-width="2.64" stroke-linecap="round" stroke-linejoin="round"/>
</svg>
